<svg t="1751524242050" class="icon" viewBox="0 0 1024 1024" version="1.1" xmlns="http://www.w3.org/2000/svg" p-id="8095" width="200" height="200"><path d="M514.681341 59.764902c121.577803 0 235.886983 47.317087 321.849711 133.226543 85.962728 85.915376 133.356763 200.153526 133.356763 321.660301 0 121.459422-47.399954 235.756763-133.297572 321.666219-86.027838 85.974566-200.325179 133.279815-321.908902 133.279815-121.577803 0-235.821873-47.376277-321.843792-133.279815-86.021919-85.909457-133.356763-200.212717-133.356763-321.666219 0-121.506775 47.394035-235.744925 133.356763-321.654382C278.794358 107.076069 393.103538 59.764902 514.681341 59.764902z m0.568231 88.786127c-202.680971 0-366.982659 164.307607-366.982659 366.982659 0 202.680971 164.301688 366.982659 366.982659 366.982659 202.675052 0 366.982659-164.301688 366.982659-366.982659 0-202.675052-164.307607-366.982659-366.982659-366.982659z m104.270428 470.880185a147.882173 147.882173 0 0 1-66.447538 38.314173l65.34659 243.77711a403.787468 403.787468 0 0 1-103.737711 13.495491c-35.502613 0-70.312694-4.616879-103.737711-13.495491l65.34659-243.77711a147.355376 147.355376 0 0 1-66.382428-38.314173l-178.448278 178.341734a397.459977 397.459977 0 0 1-103.684439-179.549225L371.451561 553.019191a148.805549 148.805549 0 0 1 0-76.681619L127.775075 411.091607a398.217618 398.217618 0 0 1 103.625249-179.555145l178.448277 178.341735a147.888092 147.888092 0 0 1 66.441619-38.314174L410.94363 127.792832a403.621734 403.621734 0 0 1 103.737711-13.495491c35.508532 0 70.318613 4.616879 103.74363 13.495491L553.078382 371.564023a147.947283 147.947283 0 0 1 66.441618 38.367445l178.383168-178.341734c50.631769 50.542983 85.909457 112.166474 103.915283 179.442682L657.846012 476.343491a148.805549 148.805549 0 0 1 0 76.6757l243.972439 65.316994c-17.952555 67.276208-53.289434 128.899699-103.915283 179.442682l-178.383168-178.341734zM514.681341 274.230751l-22.285318 117.008278a124.720832 124.720832 0 0 0-66.382428 34.739052c-49.015861 48.980347-49.015861 128.372902 0 177.359168 49.009942 48.927075 128.44985 48.927075 177.453873 0 49.009942-48.986266 49.009942-128.38474 0-177.359168a125.738913 125.738913 0 0 0-64.713248-34.389827L514.681341 274.230751z" fill="#1296db" p-id="8096"></path></svg>