<svg t="1751600747425" class="icon" viewBox="0 0 1024 1024" version="1.1" xmlns="http://www.w3.org/2000/svg" p-id="16576" width="200" height="200"><path d="M512 906.666667A394.666667 394.666667 0 1 0 117.333333 512 394.666667 394.666667 0 0 0 512 906.666667z m149.205333-136.234667a22.442667 22.442667 0 0 1-30.976-8.32 22.528 22.528 0 0 1 8.021334-31.146667 23.04 23.04 0 0 1 31.274666 8.362667 22.528 22.528 0 0 1-8.32 31.146667z m-126.037333 17.450667a23.04 23.04 0 0 1-45.952 0v-16a22.912 22.912 0 0 1 45.952 0v16z m-171.946667-17.322667a22.613333 22.613333 0 0 1-8.490666-31.317333l16.981333-29.653334a23.466667 23.466667 0 0 1 31.573333-8.448c10.752 6.357333 14.72 20.48 8.192 31.274667l-16.981333 29.696a22.741333 22.741333 0 0 1-31.274667 8.448z m-109.226666-109.056a22.784 22.784 0 0 1 8.192-31.317333l45.568-26.410667a23.04 23.04 0 0 1 31.317333 8.448 23.253333 23.253333 0 0 1-8.448 31.317333l-45.312 26.410667a23.04 23.04 0 0 1-31.274667-8.448z m-39.978667-149.077333c0-12.714667 10.112-22.954667 22.826667-22.954667h70.997333c12.714667 0 22.784 10.24 22.784 22.784a22.784 22.784 0 0 1-22.784 22.954667H236.8a22.741333 22.741333 0 0 1-22.826667-22.784z m40.064-149.205334a22.698667 22.698667 0 0 1 31.317333-8.490666l77.184 44.842666c10.88 6.229333 14.506667 20.181333 8.448 30.976a22.997333 22.997333 0 0 1-31.274666 8.448L262.229333 394.325333a22.357333 22.357333 0 0 1-8.149333-31.146666z m154.453333 15.317334l-53.76-93.312a22.741333 22.741333 0 0 1 39.338667-22.826667l53.973333 93.184a22.826667 22.826667 0 1 1-39.594666 22.954667z m103.552-164.522667c12.714667 0 23.125333 10.325333 23.125334 22.997333v107.477334c0 12.714667-10.24 22.954667-23.125334 23.125333a22.912 22.912 0 0 1-22.784-23.125333v-107.52c0-12.373333 10.410667-22.954667 22.784-22.954667z m149.162667 39.936a22.613333 22.613333 0 0 1 8.448 31.317333l-53.845333 93.312a22.954667 22.954667 0 0 1-31.317334 8.448 23.296 23.296 0 0 1-8.32-31.445333l53.76-93.184a22.954667 22.954667 0 0 1 31.274667-8.448z m-15.274667 154.666667l93.44-53.888a22.442667 22.442667 0 0 1 31.104 8.533333 22.613333 22.613333 0 0 1-8.192 31.146667l-93.482666 53.845333a23.466667 23.466667 0 0 1-31.317334-8.32 22.997333 22.997333 0 0 1 8.448-31.317333z m164.266667 103.808a22.613333 22.613333 0 0 1-22.784 22.784h-107.605333a23.04 23.04 0 0 1-22.826667-22.954667c0-12.544 10.410667-22.784 22.826667-22.784h107.605333c12.8 0 22.954667 10.24 22.784 22.954667z" p-id="16577" fill="#ff6b6b"></path></svg>